# xmcd CD database file
#
# Track frame offsets:
#	150
#	28164
#	58500
#	92670
#	149342
#	164980
#	208573
#
# Disc length: 3402 seconds
#
# Revision: 1
# Processed by: cddbd v1.5.2PL0 Copyright (c) Steve Scherf et al.
# Submitted via: CDex 1.51
#
DISCID=650d4807
DTITLE=HDV Trio - All In
DYEAR=2008
DGENRE=Jazz
TTITLE0=How Many Miles To Korea Part 1
TTITLE1=How Many Miles To Korea Part 2
TTITLE2=John's Bird Escaped Out of His Cage
TTITLE3=Mexican Colour
TTITLE4=Monkaholic
TTITLE5=Mythos
TTITLE6=BBDB
EXTD=YEAR: 2008
EXTT0=
EXTT1=
EXTT2=
EXTT3=
EXTT4=
EXTT5=
EXTT6=
PLAYORDER=
